<svg xmlns="http://www.w3.org/2000/svg" viewBox="0 0 900 540"><defs><linearGradient id="a" y2="1"><stop stop-color="#9fbfba"/><stop offset="1" stop-color="#e1c097"/></linearGradient></defs><rect width="900" height="540" fill="url(#a)"/><path d="M0 282c147-58 267-44 360 43 102-94 193-102 273-24 105-37 194-30 267 22v217H0Z" fill="#244f48"/><path d="M0 363c231-32 392-9 484 68 93 78 232 75 416 17v92H0Z" fill="#376e69"/><path d="M590 340c10-80 37-139 79-177 47 67 67 127 61 181Z" fill="#1a3d37"/><path d="m667 163 14-75 17 75" fill="#1a3d37"/><g fill="#e9e3d4"><rect x="80" y="300" width="75" height="100"/><rect x="165" y="275" width="57" height="125"/><rect x="235" y="315" width="91" height="85"/></g><g fill="#741c32"><rect x="94" y="322" width="10" height="15"/><rect x="117" y="322" width="10" height="15"/><rect x="182" y="296" width="9" height="14"/></g></svg>
